<?xml version="1.0" encoding="UTF-8" standalone="no"?>
<!DOCTYPE svg PUBLIC "-//W3C//DTD SVG 1.1//EN" "http://www.w3.org/Graphics/SVG/1.1/DTD/svg11.dtd">
<svg width="100%" height="100%" viewBox="0 0 400 400" version="1.1" xmlns="http://www.w3.org/2000/svg" xmlns:xlink="http://www.w3.org/1999/xlink" xml:space="preserve" xmlns:serif="http://www.serif.com/" style="fill-rule:evenodd;clip-rule:evenodd;">
    <g transform="matrix(1,0,0,1,-140,-40)">
        <path d="M540,100L540,380C540,413.115 513.115,440 480,440L200,440C166.885,440 140,413.115 140,380L140,100C140,66.885 166.885,40 200,40L480,40C513.115,40 540,66.885 540,100Z" style="fill:rgb(2,132,199);"/>
    </g>
    <g transform="matrix(1,0,0,1,-140,-40)">
        <circle cx="270" cy="222" r="54" style="fill:white;"/>
    </g>
    <g transform="matrix(1,0,0,1,-140,-40)">
        <path d="M270,209L452,209C459.132,209 465,214.868 465,222C465,229.132 459.132,235 452,235L270,235L270,209Z" style="fill:white;fill-rule:nonzero;"/>
    </g>
    <g transform="matrix(1,0,0,1,-140,-40)">
        <path d="M346,239L346,263C346,265.208 344.208,267 342,267L332,267C329.792,267 328,265.208 328,263L328,239C328,236.792 329.792,235 332,235L342,235C344.208,235 346,236.792 346,239Z" style="fill:white;"/>
    </g>
    <g transform="matrix(1,0,0,1,-140,-40)">
        <path d="M380,239L380,254C380,256.208 378.208,258 376,258L366,258C363.792,258 362,256.208 362,254L362,239C362,236.792 363.792,235 366,235L376,235C378.208,235 380,236.792 380,239Z" style="fill:white;"/>
    </g>
    <g transform="matrix(1,0,0,1,-140,-40)">
        <path d="M414,239L414,267C414,269.208 412.208,271 410,271L400,271C397.792,271 396,269.208 396,267L396,239C396,236.792 397.792,235 400,235L410,235C412.208,235 414,236.792 414,239Z" style="fill:white;"/>
    </g>
    <g transform="matrix(1,0,0,1,-140,-40)">
        <circle cx="270" cy="222" r="30" style="fill:rgb(2,132,199);"/>
    </g>
    <g transform="matrix(1,0,0,1,130,182)">
        <text x="-6.616px" y="0px" style="font-family:'Arial-BoldMT', 'Arial', sans-serif;font-weight:700;font-size:34px;fill:white;">*</text>
    </g>
    <g transform="matrix(1,0,0,1,-140,-40)">
        <path d="M420,365C420,375.486 411.486,384 401,384L239,384C228.514,384 220,375.486 220,365C220,354.514 228.514,346 239,346L401,346C411.486,346 420,354.514 420,365Z" style="fill:none;stroke:white;stroke-opacity:0.35;stroke-width:2px;"/>
    </g>
    <g transform="matrix(1,0,0,1,-140,-40)">
        <circle cx="259" cy="365" r="6.5" style="fill:white;fill-opacity:0.7;"/>
    </g>
    <g transform="matrix(1,0,0,1,-140,-40)">
        <circle cx="284" cy="365" r="6.5" style="fill:white;fill-opacity:0.7;"/>
    </g>
    <g transform="matrix(1,0,0,1,-140,-40)">
        <circle cx="309" cy="365" r="6.5" style="fill:white;fill-opacity:0.7;"/>
    </g>
    <g transform="matrix(1,0,0,1,-140,-40)">
        <circle cx="334" cy="365" r="6.5" style="fill:white;fill-opacity:0.7;"/>
    </g>
    <g transform="matrix(1,0,0,1,-140,-40)">
        <circle cx="359" cy="365" r="6.5" style="fill:white;fill-opacity:0.7;"/>
    </g>
    <g transform="matrix(1,0,0,1,-140,-40)">
        <circle cx="384" cy="365" r="6.5" style="fill:white;fill-opacity:0.7;"/>
    </g>
    <g transform="matrix(1,0,0,1,-140,-40)">
        <circle cx="409" cy="365" r="6.5" style="fill:white;fill-opacity:0.7;"/>
    </g>
</svg>
